<?xml version="1.0" standalone="no"?>
<!DOCTYPE svg PUBLIC "-//W3C//DTD SVG 20010904//EN"
 "http://www.w3.org/TR/2001/REC-SVG-20010904/DTD/svg10.dtd">
<svg version="1.0" xmlns="http://www.w3.org/2000/svg"
 width="1280.000000pt" height="1119.000000pt" viewBox="0 0 1280.000000 1119.000000"
 preserveAspectRatio="xMidYMid meet">
<metadata>
Created by potrace 1.15, written by Peter Selinger 2001-2017
</metadata>
<g transform="translate(0.000000,1119.000000) scale(0.100000,-0.100000)"
fill="#000000" stroke="none">
<path d="M6915 11097 c-27 -7 -104 -35 -170 -62 l-119 -48 -92 13 c-165 22
-209 -1 -237 -125 -35 -152 -49 -223 -77 -387 -22 -129 -34 -176 -49 -189 -14
-13 -20 -38 -25 -96 -4 -43 -12 -113 -17 -157 -6 -43 -8 -84 -6 -90 3 -8 -30
-24 -93 -45 -181 -59 -236 -127 -116 -145 37 -6 222 17 329 40 34 8 36 -10 5
-36 -22 -17 -22 -19 -11 -156 8 -89 20 -160 33 -199 12 -33 25 -79 30 -103 6
-24 16 -55 24 -70 8 -15 19 -70 25 -121 12 -116 48 -195 119 -267 l49 -49 27
-137 c51 -257 59 -546 19 -626 -38 -72 -260 -239 -348 -261 -106 -27 -253
-122 -314 -204 -70 -94 -100 -172 -127 -326 -11 -67 -27 -117 -54 -171 -88
-175 -113 -257 -135 -445 -10 -89 -21 -138 -35 -162 -11 -19 -20 -43 -20 -53
0 -29 95 -168 156 -227 68 -66 69 -77 57 -391 -6 -136 -7 -278 -3 -317 9 -88
51 -241 103 -370 36 -90 41 -110 44 -204 l3 -103 -44 -82 c-61 -112 -90 -204
-126 -402 -54 -298 -101 -512 -129 -597 -32 -93 -127 -320 -176 -417 -18 -36
-52 -117 -75 -180 -49 -131 -80 -196 -123 -259 -17 -24 -43 -78 -59 -120 -89
-230 -85 -216 -98 -396 -6 -94 -15 -210 -20 -260 -23 -219 -2 -378 64 -484 40
-66 75 -84 106 -56 11 10 20 25 20 34 0 14 2 14 10 1 5 -8 10 -72 10 -143 0
-311 72 -871 145 -1142 20 -72 46 -169 58 -218 l22 -87 675 2 675 3 7 63 c6
57 62 202 77 202 3 0 20 -49 38 -108 17 -59 36 -119 42 -134 l11 -28 828 0
829 0 6 98 c12 231 -52 957 -103 1150 -51 196 -112 464 -121 532 -23 182 -23
182 27 425 57 279 65 354 65 655 0 211 -2 249 -25 369 -19 99 -22 138 -14 148
15 18 6 61 -41 211 -58 183 -81 212 -165 212 -33 0 -33 1 -62 92 -28 92 -29
95 -29 353 -1 160 -6 294 -14 349 -26 178 -10 241 119 441 58 92 119 213 155
310 5 15 14 0 34 -65 33 -102 94 -223 156 -305 55 -73 72 -124 80 -240 4 -49
17 -153 31 -230 13 -78 28 -196 34 -264 14 -173 24 -226 85 -466 58 -226 144
-668 170 -875 9 -69 19 -208 22 -309 l6 -183 -101 -97 c-112 -107 -141 -154
-208 -342 -31 -88 -38 -122 -44 -224 -4 -66 -15 -158 -25 -205 l-17 -85 30
-81 c17 -44 33 -106 37 -138 9 -73 32 -98 83 -94 28 2 40 10 54 35 30 51 40
137 27 233 -9 64 -9 101 -1 150 12 66 43 113 61 95 16 -17 30 -133 24 -198 -3
-34 -1 -79 5 -99 8 -31 5 -58 -23 -168 -28 -111 -39 -138 -74 -185 -23 -30
-54 -61 -70 -69 -36 -19 -89 -79 -97 -111 -4 -16 0 -35 11 -51 13 -21 22 -25
45 -21 22 5 29 1 38 -19 13 -28 29 -30 76 -10 18 7 53 17 77 21 24 4 58 14 74
23 44 22 207 150 225 176 8 12 38 44 67 72 41 39 55 61 68 108 10 32 30 79 46
103 17 28 30 66 35 101 4 31 20 95 35 141 l29 85 0 355 c0 399 14 863 30 1021
6 58 27 224 46 370 62 460 58 721 -16 1093 -16 82 -34 194 -41 250 -12 110
-33 205 -72 332 -46 148 -61 356 -51 700 14 497 13 559 -14 640 -13 39 -47
120 -77 180 -29 61 -58 135 -64 165 -7 31 -16 177 -21 325 -7 220 -13 284 -29
346 -44 164 -116 299 -219 413 -37 41 -94 105 -127 142 -68 77 -136 123 -337
231 -278 148 -566 329 -688 432 -123 104 -160 152 -244 317 l-56 111 10 129
c13 154 16 167 39 159 31 -9 69 12 98 55 16 23 40 56 54 73 58 71 73 115 77
231 6 159 -21 226 -92 226 l-31 0 0 139 0 139 100 27 c165 46 202 62 213 94
13 37 -3 71 -43 91 -19 8 -68 15 -129 17 l-100 3 -32 86 c-33 86 -45 103 -74
104 -8 0 -31 28 -50 62 -58 102 -225 352 -264 395 -20 23 -62 52 -98 69 -56
25 -76 29 -178 31 -69 1 -135 -3 -165 -10z"/>
</g>
</svg>
